<svg xmlns="http://www.w3.org/2000/svg" viewBox="0 0 128 128"><defs><style>.cls-1{fill:#262628;}.cls-2{fill:#e9355c;}.cls-3{fill:#fff;}</style></defs><g id="Layer_2" data-name="Layer 2"><g id="Layer_1-2" data-name="Layer 1"><rect class="cls-1" width="128" height="128" rx="9.42"/><path class="cls-2" d="M7.71,99.11a1.82,1.82,0,0,1-1.44-.75,2.69,2.69,0,0,1-.61-1.76V31.4a2.64,2.64,0,0,1,.61-1.81,1.89,1.89,0,0,1,1.44-.7h8.85a2.43,2.43,0,0,1,2.05.85,5,5,0,0,1,.82,1.36L33.87,62.7,48.3,31.1a9.56,9.56,0,0,1,.86-1.36,2.33,2.33,0,0,1,2-.85h8.77a2,2,0,0,1,1.52.7,2.64,2.64,0,0,1,.61,1.81V96.6a2.69,2.69,0,0,1-.61,1.76,1.9,1.9,0,0,1-1.52.75H50.18a1.88,1.88,0,0,1-1.51-.75,2.7,2.7,0,0,1-.62-1.76V59L38.87,80a5.9,5.9,0,0,1-1.07,1.6,2.35,2.35,0,0,1-1.8.71H31.73a2.35,2.35,0,0,1-1.8-.71A5.9,5.9,0,0,1,28.86,80L19.6,59V96.6A2.78,2.78,0,0,1,19,98.36a1.77,1.77,0,0,1-1.47.75Z"/><path class="cls-3" d="M90.36,99.11a1.8,1.8,0,0,1-1.43-.75,2.7,2.7,0,0,1-.62-1.76V75l-19-42.93c-.06-.2-.11-.38-.17-.55A1.92,1.92,0,0,1,69,31a2.28,2.28,0,0,1,.53-1.46,1.62,1.62,0,0,1,1.28-.65H81.1a2.48,2.48,0,0,1,1.92.75A4.83,4.83,0,0,1,84,31L95.69,56.88,107.5,31a4.77,4.77,0,0,1,.94-1.36,2.52,2.52,0,0,1,1.93-.75h10.25a1.5,1.5,0,0,1,1.23.65,2.36,2.36,0,0,1,.49,1.46,3.16,3.16,0,0,1,0,.55c0,.17-.07.35-.12.55L103.15,75V96.6a2.69,2.69,0,0,1-.61,1.76,1.9,1.9,0,0,1-1.52.75Z"/></g></g></svg>